<?xml version="1.0" standalone="no"?>
<!DOCTYPE svg PUBLIC "-//W3C//DTD SVG 20010904//EN"
 "http://www.w3.org/TR/2001/REC-SVG-20010904/DTD/svg10.dtd">
<svg version="1.0" xmlns="http://www.w3.org/2000/svg"
 width="500.000000pt" height="500.000000pt" viewBox="0 0 500.000000 500.000000"
 preserveAspectRatio="xMidYMid meet">

<g transform="translate(0.000000,500.000000) scale(0.100000,-0.100000)"
fill="#000000" stroke="none">
<path d="M2580 3862 c-17 -6 -11 -19 10 -25 17 -4 20 -14 20 -55 0 -32 -6 -56
-15 -66 -9 -9 -11 -17 -5 -21 5 -3 10 -36 10 -72 0 -56 -3 -66 -20 -70 -23 -6
-26 -19 -7 -25 6 -2 53 -5 104 -7 105 -2 142 11 173 61 20 34 13 68 -22 100
-11 10 -14 19 -8 23 6 3 17 19 25 36 14 26 14 32 0 60 -9 17 -31 37 -48 44
-29 12 -193 25 -217 17z m180 -47 c9 -11 10 -27 4 -58 -8 -38 -12 -42 -41 -45
l-33 -3 0 54 c0 29 3 57 7 60 12 12 50 7 63 -8z m40 -21 c7 -18 6 -33 -4 -52
-14 -26 -15 -26 -13 25 1 29 3 53 5 53 1 0 7 -12 12 -26z m-169 -185 c-8 -20
-10 -17 -10 26 -1 28 3 75 7 105 l7 55 3 -81 c1 -44 -2 -91 -7 -105z m129 56
c9 -11 10 -28 4 -62 -9 -46 -10 -48 -44 -48 l-35 0 -3 63 -3 62 34 0 c19 0 40
-7 47 -15z m42 -42 c1 -16 -4 -38 -10 -49 -9 -15 -11 -8 -9 38 2 57 18 66 19
11z"/>
<path d="M2185 3852 c-36 -4 -59 -22 -28 -22 11 0 24 -7 27 -16 11 -27 6 -100
-6 -112 -9 -9 -10 -15 -2 -20 6 -4 14 -36 17 -71 5 -57 3 -64 -14 -68 -11 -3
-18 -11 -16 -17 2 -7 28 -10 73 -7 78 4 84 6 61 24 -11 7 -20 33 -24 65 l-6
53 34 -3 c36 -3 38 -7 56 -93 8 -39 9 -40 53 -40 25 -1 51 1 58 3 17 6 15 22
-3 22 -18 0 -35 31 -35 64 0 14 -10 36 -22 48 -14 14 -18 23 -10 26 7 2 20 21
30 41 18 37 18 38 -5 74 -12 20 -32 41 -43 47 -18 9 -119 11 -195 2z m155 -41
c5 -11 10 -38 10 -61 0 -33 -4 -42 -24 -52 -43 -19 -56 -5 -56 60 0 32 3 62 7
65 13 14 53 6 63 -12z m40 -73 c-8 -20 -9 -19 -9 14 -1 20 -3 45 -6 55 -3 10
1 4 10 -14 10 -22 12 -39 5 -55z m-151 -112 c1 -25 -3 -36 -8 -30 -10 10 -14
70 -10 144 2 44 2 44 9 -15 4 -33 8 -78 9 -99z m163 -36 c4 -49 -8 -39 -18 14
-4 26 -3 37 4 33 5 -4 12 -25 14 -47z"/>
<path d="M2996 3832 c-3 -6 1 -12 9 -16 18 -7 20 -72 3 -113 -6 -15 -10 -32
-8 -38 4 -14 1 -75 -6 -107 -4 -19 -12 -28 -25 -28 -19 0 -26 -15 -11 -24 13
-8 123 -20 180 -20 37 1 52 -3 52 -13 0 -18 15 -16 31 3 13 16 17 104 4 123
-9 15 -25 4 -25 -18 0 -32 -39 -71 -70 -71 -45 0 -58 20 -50 79 3 28 9 53 12
57 13 12 49 -8 46 -25 -5 -27 15 -27 29 0 17 32 16 74 -1 88 -11 9 -15 7 -19
-9 -3 -14 -13 -20 -31 -20 -25 0 -26 2 -20 43 8 53 19 67 55 67 33 0 64 -39
56 -70 -8 -31 22 -25 34 7 5 15 9 41 7 57 -2 24 -8 31 -23 29 -21 -2 -152 13
-197 23 -14 3 -29 1 -32 -4z m50 -134 c-9 -97 -27 -159 -21 -73 5 74 16 145
23 145 2 0 2 -33 -2 -72z"/>
<path d="M1875 3822 c-2 -3 -19 -5 -36 -6 -36 -1 -50 -21 -21 -28 17 -5 19
-11 11 -58 -4 -28 -13 -57 -18 -64 -6 -7 -8 -21 -5 -33 3 -12 0 -47 -6 -78 -9
-42 -17 -59 -31 -62 -10 -3 -19 -9 -19 -14 0 -10 30 -11 83 -3 39 7 51 24 17
24 -15 0 -20 7 -20 30 0 31 0 30 97 44 30 4 51 -41 27 -59 -27 -19 2 -24 71
-13 61 10 97 28 57 28 -17 0 -29 14 -53 61 -16 34 -28 67 -25 75 3 7 -1 17 -8
21 -16 10 -56 86 -56 108 0 8 7 15 16 15 8 0 12 4 9 10 -6 10 -80 11 -90 2z
m55 -208 c0 -10 -80 -28 -88 -19 -2 1 2 40 9 86 l13 83 33 -69 c18 -39 32 -75
33 -81z m4 84 c17 -30 56 -125 55 -138 0 -8 -51 92 -76 150 -23 55 -15 50 21
-12z"/>
<path d="M3385 3770 c-3 -5 1 -10 9 -10 8 0 17 -4 20 -9 10 -15 -15 -112 -30
-118 -9 -3 -11 -10 -5 -22 11 -19 -5 -108 -22 -129 -6 -7 -16 -11 -24 -8 -15
6 -18 -10 -3 -19 5 -3 20 -8 32 -11 13 -2 32 -6 43 -8 11 -2 27 -7 36 -11 23
-9 35 13 16 28 -13 10 -14 20 -4 65 12 57 25 64 58 31 17 -17 19 -28 14 -73
-8 -61 -1 -70 61 -80 48 -7 62 2 33 22 -17 12 -19 21 -14 53 5 28 2 47 -9 64
-15 22 -14 24 3 30 25 8 56 55 53 80 -10 76 -41 98 -164 120 -100 18 -95 17
-103 5z m174 -54 c15 -18 5 -101 -15 -116 -7 -7 -23 -10 -36 -8 -21 3 -23 7
-21 57 2 29 8 60 14 67 15 18 43 18 58 0z m-134 -114 c-17 -78 -42 -140 -29
-72 4 19 8 47 9 61 1 14 4 30 7 35 4 5 10 27 14 49 5 23 10 32 12 22 2 -10 -4
-53 -13 -95z m160 11 c-9 -15 -14 -20 -11 -10 3 10 9 37 13 60 8 41 8 41 11
10 2 -18 -4 -45 -13 -60z m-24 -148 c-3 -22 -9 -35 -12 -30 -9 15 2 88 11 78
5 -4 5 -26 1 -48z"/>
<path d="M1468 3755 c-2 -3 -33 -11 -68 -18 -65 -13 -89 -33 -49 -39 18 -2 25
-14 35 -52 8 -32 9 -56 4 -67 -7 -12 -6 -19 3 -22 8 -3 19 -31 26 -63 12 -53
12 -59 -5 -71 -31 -23 -8 -25 87 -9 107 19 153 46 168 102 9 31 7 40 -11 65
-12 16 -30 31 -40 35 -13 4 -16 9 -10 17 5 7 13 26 16 43 6 27 3 35 -24 58
-24 20 -42 26 -79 26 -26 0 -50 -2 -53 -5z m58 -36 c4 -6 10 -26 14 -45 10
-42 -7 -67 -41 -62 -19 2 -26 11 -33 45 -5 23 -6 49 -3 57 7 18 52 22 63 5z
m54 -46 c0 -12 -4 -25 -10 -28 -6 -3 -10 4 -10 17 0 13 -3 34 -6 48 -6 24 -6
25 9 5 9 -11 17 -30 17 -42z m-146 -86 c9 -38 16 -80 15 -95 -1 -21 -3 -19
-10 13 -5 22 -12 47 -16 55 -3 8 -5 18 -5 23 1 4 -2 26 -7 48 -5 23 -6 37 -1
33 5 -5 16 -40 24 -77z m130 -19 c35 -58 23 -118 -24 -118 -24 0 -39 26 -46
84 -6 38 -4 45 12 49 36 9 44 7 58 -15z m56 -45 c0 -39 -15 -25 -26 23 -11 46
-11 46 7 23 10 -13 19 -34 19 -46z"/>
<path d="M955 3472 c-73 -45 -120 -129 -113 -202 3 -34 10 -39 402 -282 363
-226 403 -248 443 -248 53 0 93 19 125 59 l23 30 85 -55 c46 -30 109 -78 140
-107 31 -29 95 -85 143 -126 48 -40 87 -76 86 -80 0 -3 -28 -28 -61 -56 -261
-213 -708 -713 -744 -831 -18 -61 -18 -78 3 -121 39 -84 166 -99 242 -30 13
12 78 90 145 172 205 255 595 675 626 675 31 0 421 -420 626 -675 67 -82 132
-160 145 -172 76 -69 203 -54 242 30 45 93 5 167 -244 457 -119 138 -373 392
-492 490 -36 30 -66 58 -66 61 -1 4 38 40 86 80 48 41 112 97 143 126 31 29
94 77 140 107 l85 55 23 -30 c32 -40 72 -59 125 -59 40 0 80 22 443 248 378
235 399 249 402 279 6 58 -17 115 -67 165 -79 79 -73 80 -306 -78 -260 -177
-511 -336 -599 -381 -64 -32 -251 -103 -321 -122 -34 -9 -193 -106 -298 -183
l-68 -49 -67 49 c-103 75 -263 174 -297 183 -66 18 -262 91 -317 119 -85 44
-338 205 -588 374 -118 80 -222 146 -230 146 -8 0 -29 -8 -45 -18z m-12 -54
c-38 -41 -63 -77 -63 -94 0 -5 13 7 28 26 l28 33 122 -87 c136 -97 492 -327
622 -401 47 -27 87 -50 89 -51 8 -7 -42 -64 -57 -65 -10 0 -12 -3 -5 -6 18 -7
68 32 93 72 l22 35 29 -17 c16 -10 29 -21 29 -25 0 -12 -13 -9 -34 7 -18 13
-21 12 -43 -20 -28 -42 -70 -65 -116 -65 -38 0 -40 2 -514 297 -305 189 -313
195 -313 226 1 47 32 107 74 145 52 46 58 40 9 -10z m3139 -5 c33 -34 58 -92
58 -132 0 -28 -16 -40 -312 -224 -472 -294 -477 -297 -514 -297 -51 0 -81 16
-112 59 -27 37 -31 39 -48 26 -21 -16 -34 -19 -34 -7 0 4 13 15 29 25 l29 17
26 -40 c29 -44 69 -74 88 -67 8 4 7 6 -4 6 -14 1 -58 49 -58 64 0 3 42 28 93
57 174 99 521 323 670 432 64 48 69 50 86 33 11 -9 25 -30 31 -46 7 -16 15
-28 17 -25 10 10 -32 85 -70 125 -23 24 -33 39 -22 33 11 -6 32 -23 47 -39z
m-2390 -395 c117 -69 166 -92 311 -143 27 -10 46 -19 43 -22 -3 -3 -26 2 -52
11 -59 20 -67 16 -15 -7 l39 -18 -15 -32 c-9 -18 -18 -34 -20 -36 -8 -10 -52
44 -58 70 -4 19 -18 35 -37 45 -80 41 -321 190 -523 322 -117 77 -315 220
-315 227 0 2 116 -74 258 -169 141 -94 314 -206 384 -248z m2258 418 c0 -23
-561 -393 -813 -535 -44 -25 -59 -40 -64 -61 -5 -26 -48 -79 -56 -69 -2 2 -11
19 -20 37 l-16 33 42 19 c53 23 45 25 -17 4 -26 -9 -49 -14 -52 -11 -3 3 16
12 43 22 145 51 194 73 301 137 133 80 485 311 582 381 64 47 70 51 70 43z
m-2400 -366 c74 -46 140 -88 145 -93 28 -28 -319 183 -363 221 -28 24 -24 22
218 -128z m2118 127 c-45 -37 -384 -244 -367 -224 7 8 382 245 389 246 3 0 -7
-10 -22 -22z m-1359 -467 c83 -54 151 -104 151 -111 0 -14 -3 -12 -73 35 -66
45 -67 45 -92 -38 -19 -64 -19 -86 2 -102 10 -7 15 -16 11 -20 -9 -9 -20 0
-151 110 -108 90 -134 127 -122 168 13 42 35 58 80 58 36 0 62 -13 194 -100z
m633 83 c42 -48 30 -102 -35 -154 -118 -94 -279 -238 -530 -470 l-132 -123
153 155 c84 85 190 188 237 229 84 75 85 75 80 116 -5 48 -33 124 -45 124 -17
0 -300 -209 -421 -310 -68 -57 -187 -165 -265 -240 -91 -87 -76 -71 40 45 211
210 425 385 655 537 143 94 169 108 206 108 27 0 47 -6 57 -17z m-608 -292
c-2 -2 -10 2 -19 9 -10 8 -13 21 -9 39 14 64 18 65 25 11 4 -30 6 -57 3 -59z
m356 60 l7 -40 -151 -142 c-154 -146 -147 -133 27 47 92 96 97 103 97 144 0
51 10 47 20 -9z m158 -270 c90 -83 322 -316 300 -301 -4 3 -62 59 -130 126
-68 66 -159 151 -203 189 -106 90 -101 85 -87 85 7 0 61 -45 120 -99z m-193
-143 l90 -91 -97 88 c-54 48 -98 90 -98 92 0 14 27 -9 105 -89z m-486 65 c-8
-10 -71 -79 -141 -153 -143 -152 -252 -281 -275 -324 -20 -39 -10 -68 34 -94
l38 -23 -40 6 c-59 10 -105 32 -105 50 0 40 148 215 354 418 133 130 166 159
135 120z m1084 -433 c37 -46 67 -93 67 -103 0 -20 -43 -42 -105 -52 -34 -5
-37 -4 -20 6 35 20 65 52 65 67 0 34 -165 236 -357 433 -45 48 -83 90 -83 95
1 16 365 -359 433 -446z m-1631 -115 c50 -42 107 -67 173 -73 l62 -7 -64 -83
c-48 -60 -79 -90 -114 -107 -60 -31 -87 -31 -130 -2 -79 53 -78 128 4 249 18
26 34 48 36 48 2 0 17 -11 33 -25z m1825 -23 c82 -121 83 -196 4 -249 -44 -30
-75 -29 -136 5 -34 19 -68 51 -111 107 l-62 80 64 7 c64 6 147 43 180 79 10
11 20 19 23 19 3 0 20 -22 38 -48z"/>
<path d="M2079 2800 c-25 -14 -32 -58 -15 -85 8 -12 34 -37 58 -55 l43 -34
-42 45 c-39 41 -47 57 -44 86 0 6 40 -18 89 -54 63 -48 88 -73 90 -91 3 -21 8
-15 23 31 11 32 17 62 14 67 -10 16 -162 100 -181 100 -10 0 -26 -5 -35 -10z"/>
<path d="M2794 2769 c-101 -61 -99 -56 -75 -125 15 -46 20 -53 23 -32 2 18 27
43 91 91 84 64 87 65 87 39 0 -17 -14 -42 -42 -71 l-43 -45 45 36 c57 45 75
79 59 110 -27 51 -55 50 -145 -3z"/>
<path d="M1561 1633 c-47 -70 -56 -116 -34 -161 22 -45 62 -66 108 -58 47 9
52 22 7 18 -65 -5 -67 7 -15 87 l48 73 55 -6 c30 -2 48 -2 40 1 -8 3 -39 14
-68 25 -29 11 -65 30 -81 44 l-29 24 -31 -47z"/>
<path d="M3373 1653 c-18 -14 -61 -36 -95 -49 l-63 -23 57 6 c56 6 56 5 73
-28 10 -19 31 -51 48 -72 35 -45 26 -60 -35 -55 -44 4 -40 -9 5 -17 67 -13
122 35 121 105 -1 36 -28 97 -61 137 l-18 21 -32 -25z"/>
<path d="M2707 3443 c-5 -8 -28 -10 -75 -6 -68 6 -68 5 -96 -28 -21 -25 -26
-39 -22 -62 8 -38 58 -108 73 -102 7 2 26 -7 43 -21 48 -41 36 -94 -21 -94
-34 0 -72 45 -66 77 3 15 -1 23 -9 23 -17 0 -35 -64 -28 -99 5 -26 8 -27 84
-29 71 -2 81 0 108 23 49 41 47 112 -7 159 -11 11 -21 25 -21 32 0 7 -6 11
-13 8 -21 -8 -69 35 -65 60 7 46 98 23 98 -26 0 -26 19 -22 29 5 10 27 -1 98
-12 80z m-87 -168 c64 -47 99 -95 70 -95 -5 0 -10 5 -10 12 0 17 -51 68 -69
68 -19 1 -71 67 -71 89 1 10 6 6 15 -10 8 -15 37 -44 65 -64z"/>
<path d="M2227 3433 c-13 -12 -7 -23 12 -23 15 0 20 -10 26 -49 4 -30 2 -57
-4 -70 -7 -13 -8 -22 -1 -26 5 -3 10 -36 10 -72 0 -56 -3 -66 -20 -70 -40 -11
-6 -24 58 -22 72 2 114 19 71 29 -22 5 -24 12 -27 70 -2 44 1 66 10 72 9 6 10
10 2 16 -12 8 -25 99 -17 120 3 6 11 12 19 12 8 0 14 5 14 10 0 11 -142 14
-153 3z m72 -165 c-2 -86 -3 -94 -8 -46 -6 56 -3 148 5 148 2 0 3 -46 3 -102z"/>
<path d="M2854 3426 c-9 -23 1 -129 12 -133 7 -2 14 14 18 36 6 42 43 78 69
68 17 -6 7 -119 -11 -125 -8 -2 -8 -8 -1 -20 7 -11 8 -38 2 -77 -7 -52 -11
-60 -33 -65 -24 -6 -24 -7 -5 -16 11 -6 40 -12 64 -13 25 -1 48 -4 52 -7 10
-6 39 6 39 17 0 5 -10 9 -21 9 -21 0 -21 3 -15 67 4 37 10 70 14 73 4 3 7 34
7 70 0 56 3 65 19 68 28 6 46 -25 46 -75 0 -24 4 -43 9 -43 19 0 31 29 37 90
6 61 5 63 -15 57 -12 -3 -63 0 -113 7 -50 7 -101 11 -114 8 -14 -2 -24 0 -24
7 0 16 -30 14 -36 -3z m132 -162 c-3 -48 -10 -93 -15 -101 -9 -16 -6 71 5 145
11 73 17 46 10 -44z"/>
<path d="M1959 3416 c-2 -2 -26 -7 -54 -9 -60 -7 -55 -5 -55 -16 0 -5 8 -11
18 -13 14 -4 20 -18 25 -59 4 -29 2 -58 -3 -63 -5 -5 -3 -17 5 -30 7 -11 14
-41 15 -66 3 -65 2 -70 -15 -70 -8 0 -15 -5 -15 -11 0 -14 162 -2 198 14 18 8
25 8 32 -3 7 -11 11 -11 24 -1 15 13 13 59 -5 109 -11 29 -29 28 -29 -3 0 -59
-49 -103 -89 -78 -17 11 -32 105 -19 126 4 6 2 17 -3 23 -6 7 -13 37 -16 67
-5 51 -4 55 17 62 18 6 20 9 9 16 -15 9 -33 12 -40 5z m-25 -186 c4 -80 4 -87
-4 -45 -14 69 -19 158 -9 148 4 -4 10 -51 13 -103z"/>
<path d="M2255 2902 c6 -5 47 -35 91 -66 69 -47 83 -54 94 -41 10 12 -5 22
-92 66 -57 28 -98 47 -93 41z"/>
<path d="M2647 2854 c-73 -37 -87 -47 -77 -59 10 -12 23 -7 79 32 65 45 100
74 91 72 -3 0 -45 -20 -93 -45z"/>
<path d="M2491 2756 c-9 -10 -8 -16 3 -25 10 -9 16 -8 25 3 9 10 8 16 -3 25
-10 9 -16 8 -25 -3z"/>
<path d="M1498 2527 c3 -51 1 -72 -9 -78 -9 -5 11 -9 52 -9 70 0 83 8 69 45
-7 18 -9 18 -19 -8 -14 -37 -45 -33 -49 6 -3 27 12 38 21 15 3 -9 7 -7 12 5 4
9 4 25 0 35 -5 11 -9 13 -12 5 -8 -22 -23 -14 -23 12 0 33 37 35 49 3 l8 -23
7 23 c10 32 3 36 -57 38 l-52 1 3 -70z m19 -29 c-2 -13 -4 -3 -4 22 0 25 2 35
4 23 2 -13 2 -33 0 -45z"/>
<path d="M1677 2588 c-33 -18 -10 -80 34 -91 17 -5 15 0 -12 23 -19 15 -32 30
-29 32 3 2 23 -14 45 -35 22 -22 35 -37 29 -33 -7 3 -14 -4 -17 -15 -7 -28
-41 -21 -45 9 -4 29 -22 18 -22 -14 0 -21 4 -24 38 -24 67 0 86 52 32 92 -16
12 -30 28 -30 35 0 18 29 16 36 -2 8 -19 24 -9 24 14 0 12 -9 17 -33 18 -18 0
-41 -3 -50 -9z"/>
<path d="M1800 2569 c0 -34 17 -48 22 -17 2 12 9 23 16 26 9 3 12 -14 12 -61
0 -43 -4 -67 -12 -70 -7 -3 7 -6 32 -6 25 0 40 3 33 7 -14 9 -16 132 -3 132
12 0 31 -36 23 -44 -3 -3 -1 -6 5 -6 7 0 12 14 12 33 l0 32 -70 1 -70 1 0 -28z
m67 -71 c-2 -13 -4 -3 -4 22 0 25 2 35 4 23 2 -13 2 -33 0 -45z"/>
<path d="M2990 2569 c0 -15 5 -31 10 -34 6 -4 10 5 10 19 0 19 5 26 20 26 31
0 25 -41 -10 -75 -16 -16 -30 -37 -30 -47 0 -15 8 -18 50 -18 47 0 50 1 50 26
0 22 -2 24 -14 15 -8 -7 -27 -11 -43 -9 l-28 3 33 22 c19 11 40 30 47 40 21
30 -13 63 -60 61 -31 -1 -35 -4 -35 -29z m77 -21 c-3 -8 -6 -5 -6 6 -1 11 2
17 5 13 3 -3 4 -12 1 -19z"/>
<path d="M3174 2590 c-12 -5 -27 -23 -33 -41 -9 -27 -8 -39 6 -68 16 -31 23
-36 53 -36 27 0 37 6 48 25 13 26 10 96 -5 110 -15 14 -48 19 -69 10z m44 -66
c2 -52 -9 -81 -27 -70 -12 8 -15 108 -4 120 16 16 28 -4 31 -50z m-61 -26 c-2
-13 -4 -5 -4 17 -1 22 1 32 4 23 2 -10 2 -28 0 -40z"/>
<path d="M3314 2588 c-3 -4 -2 -18 2 -30 l7 -23 8 23 c8 22 39 31 39 11 0 -5
5 -7 10 -4 6 3 10 -1 10 -10 0 -9 -4 -13 -10 -10 -5 3 -10 1 -10 -5 0 -7 -13
-25 -30 -40 -46 -43 -40 -60 19 -60 40 0 50 3 54 20 3 11 1 23 -4 26 -5 3 -9
0 -9 -5 0 -6 -13 -11 -30 -11 -38 0 -38 11 0 33 42 25 56 55 36 75 -17 17 -83
24 -92 10z"/>
<path d="M3470 2568 c0 -15 4 -28 9 -28 5 0 8 8 7 17 0 10 7 19 17 21 13 3 17
-3 17 -22 0 -14 -6 -26 -12 -26 -8 -1 -5 -6 5 -15 25 -18 19 -60 -8 -60 -12 0
-21 9 -25 25 l-6 25 -7 -25 c-10 -39 -9 -40 31 -40 25 0 45 7 55 18 19 21 22
48 7 57 -7 4 -7 12 0 24 15 28 -11 55 -54 56 -33 2 -36 -1 -36 -27z m67 -20
c-3 -8 -6 -5 -6 6 -1 11 2 17 5 13 3 -3 4 -12 1 -19z"/>
<path d="M1990 2465 c-10 -12 -9 -16 5 -21 23 -9 40 10 22 25 -11 9 -17 8 -27
-4z"/>
<path d="M2485 2140 c-3 -5 -2 -17 3 -26 8 -14 10 -14 21 0 13 15 8 36 -9 36
-5 0 -12 -4 -15 -10z"/>
<path d="M2313 1963 c-184 -200 -200 -231 -35 -69 144 143 171 176 143 176 -5
0 -53 -48 -108 -107z"/>
<path d="M2566 2061 c-3 -5 35 -49 86 -97 50 -49 125 -123 166 -164 67 -67 70
-69 31 -20 -65 81 -259 290 -269 290 -5 0 -11 -4 -14 -9z"/>
<path d="M2005 1309 c-33 -3 -55 -6 -48 -7 16 -3 16 -134 0 -144 -7 -4 18 -8
54 -8 70 0 83 8 69 45 -7 18 -9 18 -19 -8 -15 -39 -45 -33 -49 11 -2 18 1 32
7 32 6 0 11 -7 11 -16 0 -8 5 -12 10 -9 6 3 10 17 10 31 0 13 -4 24 -10 24 -5
0 -10 -4 -10 -10 0 -5 -5 -10 -11 -10 -6 0 -9 12 -7 27 4 35 37 45 45 14 6
-25 23 -18 23 9 0 25 -5 26 -75 19z"/>
<path d="M1514 1302 c-37 -24 -41 -97 -7 -134 29 -32 93 -18 93 20 0 9 -7 6
-18 -9 -12 -14 -25 -20 -35 -16 -14 5 -16 19 -14 69 2 56 4 63 22 63 13 0 19
-6 17 -17 -3 -20 10 -29 27 -19 10 7 10 13 2 30 -12 21 -63 29 -87 13z m-17
-74 c-3 -8 -6 -5 -6 6 -1 11 2 17 5 13 3 -3 4 -12 1 -19z"/>
<path d="M1656 1304 c12 -5 8 -40 -6 -59 -4 -5 -10 -27 -14 -47 -4 -20 -12
-39 -19 -41 -7 -3 0 -6 15 -6 21 -1 25 3 21 19 -4 17 0 20 25 20 30 0 51 -24
29 -34 -7 -2 34 -5 90 -5 98 -1 103 0 118 23 12 18 14 30 6 44 -5 10 -7 29 -4
40 9 38 -13 52 -81 52 -33 0 -56 -4 -49 -8 6 -4 11 -35 12 -75 0 -64 -1 -68
-21 -65 -16 2 -26 17 -39 58 -11 30 -17 63 -15 73 3 14 -3 17 -37 16 -23 0
-37 -3 -31 -5z m219 -35 c0 -15 -7 -25 -17 -27 -13 -3 -18 3 -18 21 0 13 3 27
7 31 13 12 28 -1 28 -25z m-181 -21 c10 -38 7 -48 -15 -48 -17 0 -20 4 -15 23
3 12 6 28 6 35 0 21 17 13 24 -10z m123 -40 c-2 -13 -4 -3 -4 22 0 25 2 35 4
23 2 -13 2 -33 0 -45z m-98 12 c0 -10 -3 -8 -9 5 -12 27 -12 43 0 25 5 -8 9
-22 9 -30z m156 -25 c0 -43 -29 -40 -33 3 -3 28 0 33 15 30 13 -2 18 -12 18
-33z m22 -7 c-3 -7 -5 -2 -5 12 0 14 2 19 5 13 2 -7 2 -19 0 -25z"/>
<path d="M2117 1298 c13 -17 14 -120 1 -135 -8 -10 4 -13 56 -13 68 0 75 5 60
45 -6 14 -8 13 -18 -7 -6 -13 -20 -23 -31 -23 -18 0 -20 7 -21 60 -1 33 3 66
9 73 7 9 1 12 -28 12 -28 0 -35 -3 -28 -12z m20 -70 c-3 -8 -6 -5 -6 6 -1 11
2 17 5 13 3 -3 4 -12 1 -19z"/>
<path d="M2276 1288 c-19 -30 -21 -46 -12 -86 18 -75 111 -69 131 8 7 28 -9
80 -28 92 -26 17 -76 8 -91 -14z m71 -56 c2 -50 0 -64 -13 -69 -9 -3 -20 0
-24 7 -7 11 -7 80 -1 123 0 5 9 7 19 5 14 -3 17 -15 19 -66z m20 -24 c-2 -13
-4 -3 -4 22 0 25 2 35 4 23 2 -13 2 -33 0 -45z m-90 5 c-3 -10 -5 -2 -5 17 0
19 2 27 5 18 2 -10 2 -26 0 -35z"/>
<path d="M2509 1294 c-9 -11 -10 -20 -2 -33 8 -12 7 -22 -2 -35 -15 -20 -9
-50 8 -39 6 4 7 1 2 -7 -17 -28 62 -42 85 -15 7 8 10 24 7 35 -3 11 -1 23 4
26 5 3 7 10 4 15 -3 5 1 6 9 3 17 -6 21 11 10 40 -8 21 -24 20 -24 -1 0 -10
-9 -31 -20 -48 -24 -37 -25 -45 -3 -45 16 0 16 -1 1 -16 -23 -24 -48 -11 -48
25 0 16 4 33 10 36 6 4 5 13 -2 25 -10 15 -10 22 0 32 10 10 14 10 21 0 7 -11
9 -10 14 2 5 13 -1 16 -27 16 -18 0 -39 -7 -47 -16z m8 -26 c-3 -8 -6 -5 -6 6
-1 11 2 17 5 13 3 -3 4 -12 1 -19z"/>
<path d="M2737 1298 c13 -17 14 -120 1 -135 -18 -23 95 -17 115 5 20 21 22 43
6 59 -8 8 -8 17 0 31 17 31 -15 52 -79 52 -40 0 -50 -3 -43 -12z m83 -28 c0
-32 -26 -43 -36 -15 -9 21 3 45 21 45 10 0 15 -10 15 -30z m17 -12 c-3 -7 -5
-2 -5 12 0 14 2 19 5 13 2 -7 2 -19 0 -25z m-80 -30 c-3 -8 -6 -5 -6 6 -1 11
2 17 5 13 3 -3 4 -12 1 -19z m63 -34 c0 -28 -3 -35 -17 -32 -31 6 -29 68 2 68
11 0 15 -10 15 -36z m17 -6 c-3 -7 -5 -2 -5 12 0 14 2 19 5 13 2 -7 2 -19 0
-25z"/>
<path d="M2926 1299 c7 -12 -10 -78 -31 -121 -14 -27 -13 -28 13 -27 15 0 22
3 15 5 -22 10 -1 34 29 34 25 0 29 -3 25 -20 -4 -17 0 -20 28 -20 34 0 34 0
21 28 -29 58 -45 121 -33 126 7 2 -7 5 -31 5 -29 1 -41 -3 -36 -10z m32 -35
c4 2 8 -11 9 -30 1 -28 -2 -34 -18 -34 -21 0 -22 3 -12 51 3 19 8 28 11 21 2
-7 7 -10 10 -8z"/>
<path d="M3057 1302 c16 -10 16 -134 0 -144 -7 -4 3 -8 23 -8 35 0 36 1 32 36
-6 46 18 43 30 -4 7 -25 14 -32 33 -32 23 0 24 2 14 23 -27 50 -29 57 -20 57
16 0 23 38 11 60 -9 17 -20 20 -73 20 -34 0 -57 -4 -50 -8z m83 -37 c0 -24 -5
-35 -15 -35 -10 0 -15 11 -15 35 0 24 5 35 15 35 10 0 15 -11 15 -35z"/>
<path d="M3227 1302 c16 -10 16 -134 0 -144 -7 -4 14 -8 45 -8 46 0 61 4 78
22 18 19 18 24 6 43 -9 14 -11 27 -5 36 23 36 -8 59 -79 59 -31 0 -52 -4 -45
-8z m83 -32 c0 -20 -5 -30 -15 -30 -10 0 -15 10 -15 30 0 20 5 30 15 30 10 0
15 -10 15 -30z m17 -12 c-3 -7 -5 -2 -5 12 0 14 2 19 5 13 2 -7 2 -19 0 -25z
m-12 -63 c0 -20 -6 -31 -17 -33 -15 -3 -18 4 -18 33 0 29 3 36 18 33 11 -2 17
-13 17 -33z"/>
<path d="M3416 1304 c12 -5 8 -40 -6 -59 -4 -5 -10 -27 -14 -47 -4 -20 -12
-39 -19 -41 -7 -3 0 -6 15 -6 21 -1 25 3 21 19 -4 17 0 20 25 20 30 0 51 -24
29 -34 -7 -2 8 -5 32 -5 37 -1 42 1 29 12 -19 15 -51 114 -44 133 4 11 -5 14
-37 13 -23 0 -37 -3 -31 -5z m38 -56 c10 -38 7 -48 -15 -48 -17 0 -20 4 -15
23 3 12 6 28 6 35 0 21 17 13 24 -10z m25 -28 c0 -10 -3 -8 -9 5 -12 27 -12
43 0 25 5 -8 9 -22 9 -30z"/>
</g>
</svg>
